<svg width="105" height="59" viewBox="0 0 105 59" fill="none" xmlns="http://www.w3.org/2000/svg">
<path fill-rule="evenodd" clip-rule="evenodd" d="M74.494 13.9713L83.1847 12.7297C85.0339 12.4656 86.6899 13.8967 86.6964 15.7646L86.8287 53.3229C86.8328 54.4914 85.584 55.2377 84.5569 54.6805L72.1414 47.9457C71.1495 47.4076 70.5317 46.3698 70.5317 45.2413V18.5398C70.5317 16.2432 72.2205 14.2961 74.494 13.9713ZM76.1466 18.383L80.9153 17.7677V47.3033L76.1466 44.4574V18.383Z" fill="white"/>
<path d="M103.86 13.0907L98.8082 20.2192C98.7215 20.3415 98.5288 20.2802 98.5288 20.1303V12.749C98.5288 12.3722 98.1018 12.1542 97.7967 12.3752L94.7038 14.6148C94.3043 14.9041 94.0677 15.3675 94.0677 15.8608V23.8438L102.517 28.3587C103.518 28.8938 104.144 29.9368 104.144 31.0722V43.5625C104.144 44.471 103.742 45.3331 103.047 45.9176L88.2222 58.3788V42.6112L94.0677 34.3812V45.457L98.5288 41.6113V31.9968L89.781 27.0354C88.8175 26.4889 88.2222 25.4668 88.2222 24.3592V14.1731C88.2222 13.2366 88.6487 12.351 89.3811 11.7673L102.396 1.39334C103.101 0.831094 104.144 1.33335 104.144 2.23538V12.2012C104.144 12.5199 104.045 12.8307 103.86 13.0907Z" fill="white"/>
<path d="M0 46.6878V0.692383L5.84557 5.99955V23.6132L9.84518 26.6129V7.53786L15.7677 12.4604V58.5328L9.84518 54.1486V33.6122L5.84557 30.7663V51.5335L0 46.6878Z" fill="white"/>
<path d="M23.1514 13.1529L17.5366 10.7686L17.6135 31.8434L22.4592 38.0735V55.3026L24.5359 56.0718L28.2279 53.8412V38.0735L33.2274 31.8434V15.0758L27.6895 13.7683V29.7667L25.382 32.7664L23.1514 29.7667V13.1529Z" fill="white"/>
<path fill-rule="evenodd" clip-rule="evenodd" d="M34.9194 12.7676V51.533L48.3755 45.3816C50.0181 44.6307 51.0717 42.9906 51.0717 41.1845V19.9001C51.0717 17.7161 49.5407 15.8311 47.4031 15.3832L34.9194 12.7676ZM40.8419 19.3053V43.3029L45.38 40.9955L45.2261 20.2283L40.8419 19.3053Z" fill="white"/>
<path fill-rule="evenodd" clip-rule="evenodd" d="M52.687 47.5339V14.9987L65.8149 14.5652C67.553 14.5078 68.9931 15.9012 68.9931 17.6401V23.9978L66.0703 26.6898L68.3003 28.1569C68.7327 28.4414 68.9931 28.9244 68.9931 29.442V57.2252L62.9937 52.5334V31.2278L61.6861 30.3817L58.4557 33.3045V50.0721L52.687 47.5339ZM63.3783 19.6136V21.5365L58.3788 25.9206V19.6136H63.3783Z" fill="white"/>
</svg>
